<svg width="22" height="17" viewBox="0 0 22 17" fill="none" xmlns="http://www.w3.org/2000/svg">
<path fill-rule="evenodd" clip-rule="evenodd" d="M18.6163 0.142832C18.7339 0.21266 18.837 0.305621 18.9196 0.416402C19.0022 0.527183 19.0628 0.653613 19.0979 0.788467C19.1329 0.923322 19.1418 1.06396 19.124 1.20234C19.1062 1.34072 19.062 1.47414 18.994 1.59496L14.2083 10.1052C14.8341 10.9144 15.1516 11.9303 15.1012 12.9628C15.0508 13.9952 14.636 14.9734 13.9345 15.7142C13.233 16.455 12.2929 16.9076 11.2901 16.9873C10.2873 17.0671 9.29067 16.7684 8.48669 16.1473C7.68272 15.5261 7.12655 14.6251 6.92231 13.6129C6.71807 12.6007 6.87976 11.5467 7.37711 10.6482C7.87446 9.74966 8.67337 9.06825 9.62429 8.73152C10.5752 8.39479 11.6129 8.42581 12.5432 8.81878L14.9678 4.50914C14.0393 4.03347 13.0375 3.72716 12.007 3.60386V4.2513C12.007 4.5331 11.8981 4.80336 11.7042 5.00263C11.5104 5.20189 11.2474 5.31383 10.9732 5.31383C10.6991 5.31383 10.4361 5.20189 10.2422 5.00263C10.0484 4.80336 9.93945 4.5331 9.93945 4.2513V3.60386C9.07065 3.70754 8.22129 3.94142 7.41841 4.29805L7.73406 4.85907C7.80194 4.98 7.84598 5.11349 7.86367 5.25191C7.88135 5.39033 7.87234 5.53098 7.83714 5.66582C7.80194 5.80067 7.74125 5.92706 7.65853 6.0378C7.5758 6.14853 7.47267 6.24143 7.35501 6.3112C7.23735 6.38097 7.10748 6.42623 6.9728 6.44441C6.83813 6.46259 6.70128 6.45333 6.57009 6.41715C6.4389 6.38097 6.31592 6.31859 6.20818 6.23356C6.10045 6.14854 6.01006 6.04253 5.94218 5.9216L5.62791 5.36059C4.9258 5.89735 4.30399 6.53694 3.78227 7.25898L4.32811 7.58057C4.56573 7.72148 4.73915 7.95363 4.81024 8.22595C4.88133 8.49828 4.84425 8.78848 4.70716 9.03271C4.63928 9.15364 4.54889 9.25964 4.44116 9.34466C4.33342 9.42969 4.21044 9.49207 4.07925 9.52825C3.81429 9.60131 3.53195 9.5632 3.29433 9.4223L2.74849 9.09787C2.38767 9.95644 2.15621 10.8665 2.06207 11.7967C2.03373 12.077 1.89823 12.3343 1.68536 12.5119C1.47249 12.6895 1.19969 12.7729 0.926978 12.7438C0.654265 12.7147 0.403977 12.5754 0.231173 12.3566C0.0583695 12.1378 -0.0227941 11.8574 0.00553727 11.5771C0.191006 9.74483 0.808226 7.98663 1.80375 6.45476C2.79927 4.92288 4.14309 3.66351 5.71884 2.78569C7.2946 1.90788 9.05478 1.43808 10.847 1.41697C12.6392 1.39587 14.4094 1.8241 16.0043 2.66458L17.2035 0.531011C17.2714 0.410143 17.3619 0.304217 17.4696 0.219289C17.5774 0.13436 17.7004 0.0720919 17.8316 0.036043C17.9628 -5.99807e-06 18.0997 -0.00912941 18.2343 0.00919389C18.3689 0.0275172 18.4987 0.072928 18.6163 0.142832ZM18.4688 5.87627C18.6911 5.71135 18.968 5.64393 19.2386 5.68882C19.5093 5.73372 19.7515 5.88727 19.912 6.11569C21.3463 8.15673 22.0786 10.6306 21.9933 13.1468C21.9901 13.2874 21.9599 13.4258 21.9042 13.5542C21.8486 13.6827 21.7688 13.7985 21.6693 13.8949C21.5699 13.9914 21.4528 14.0666 21.3248 14.1163C21.1969 14.1659 21.0606 14.1889 20.924 14.1841C20.7873 14.1792 20.6529 14.1465 20.5286 14.0879C20.4043 14.0292 20.2926 13.9459 20.1999 13.8425C20.1072 13.7392 20.0353 13.618 19.9885 13.4859C19.9417 13.3539 19.9208 13.2136 19.9271 13.0732C19.9966 11.0284 19.4015 9.01811 18.2359 7.35957C18.1565 7.24636 18.0996 7.11819 18.0684 6.98238C18.0372 6.84657 18.0324 6.70577 18.0541 6.56804C18.0759 6.4303 18.1238 6.29831 18.1952 6.17962C18.2666 6.06092 18.36 5.95785 18.4702 5.87627H18.4688ZM13.0408 12.7516C13.0408 13.3152 12.823 13.8557 12.4352 14.2542C12.0475 14.6528 11.5216 14.8766 10.9732 14.8766C10.4249 14.8766 9.89899 14.6528 9.51125 14.2542C9.12351 13.8557 8.90568 13.3152 8.90568 12.7516C8.90568 12.188 9.12351 11.6475 9.51125 11.2489C9.89899 10.8504 10.4249 10.6265 10.9732 10.6265C11.5216 10.6265 12.0475 10.8504 12.4352 11.2489C12.823 11.6475 13.0408 12.188 13.0408 12.7516Z" fill="#9333EA"/>
</svg>
