<svg width="24" height="24" viewBox="0 0 24 24" fill="none" xmlns="http://www.w3.org/2000/svg">
<path d="M8.10134 0.746995C10.7041 -0.145855 13.5342 -0.121686 16.1207 0.81715V0.818138C17.5103 1.33491 18.786 2.11606 19.8794 3.11643C19.7139 3.29265 19.5428 3.46634 19.3685 3.63814C19.172 3.83183 18.973 4.02609 18.7826 4.22507C18.0691 4.94098 17.3543 5.65491 16.6384 6.36724C16.0027 5.77622 15.2586 5.31562 14.4468 5.01356L14.0822 4.89005H14.0813C12.9027 4.53556 11.654 4.49139 10.456 4.76061L10.2168 4.81891C8.94718 5.15053 7.79355 5.82541 6.88204 6.7694C6.18537 7.47812 5.63614 8.31655 5.26553 9.23567L5.1183 9.63387C4.62969 11.0728 4.59889 12.6252 5.02641 14.0783L5.1183 14.3678C5.59861 15.7796 6.4849 17.0157 7.66362 17.922L7.90372 18.0988C8.61138 18.6028 9.40402 18.9733 10.2425 19.1926L10.6052 19.2776H10.6061C11.5644 19.4558 12.5479 19.4558 13.5062 19.2776L13.5052 19.2766C14.3423 19.1348 15.1458 18.8428 15.8756 18.413L16.1839 18.2204V18.2194C16.7433 17.8422 17.2312 17.3697 17.6255 16.8242L17.7896 16.5861C18.2092 15.9391 18.4936 15.2134 18.6265 14.4538L18.6462 14.3431H12.0883V9.84828H23.2053C23.5492 11.7971 23.477 13.7954 22.9928 15.7116L22.8891 16.0979C22.387 17.8689 21.4414 19.4811 20.1442 20.7815L19.8794 21.0364C18.5887 22.2089 17.0337 23.0486 15.349 23.4849L15.0101 23.5669H15.0091C13.0025 24.0386 10.9114 24.0167 8.91553 23.5017H8.91651C6.60977 22.8823 4.54605 21.5849 2.98996 19.7825L2.68563 19.415C1.19837 17.5459 0.309868 15.2759 0.12944 12.9015L0.102761 12.4252C0.0172738 10.0383 0.651095 7.68453 1.91689 5.66768L2.17874 5.26849C3.52842 3.29797 5.4372 1.7819 7.65374 0.912006L8.10134 0.746995Z" fill="white" stroke="#0F172A" strokeWidth="0.1875"/>
</svg>
